<svg xmlns="http://www.w3.org/2000/svg" viewBox="0 0 502.707 502.707" fill="#FFF"><path d="M469.423 202.01H424.6V68.272c0-25.324-20.774-46.054-46.076-46.054H46.054C20.73 22.218 0 42.948 0 68.272v194.396c0 25.367 20.73 46.054 46.054 46.054h42.494v133.89c0 20.88 17.062 37.878 37.878 37.878h84.255c20.838 0 37.9-17.02 37.9-37.878V308.7h30.46v66.998c0 18.292 14.97 33.284 33.326 33.284h157.057c18.335 0 33.284-14.95 33.284-33.284V235.272c0-18.313-15.013-33.262-33.284-33.262zm-9.77 18.27c5.715 0 10.33 4.596 10.33 10.29 0 5.673-4.615 10.29-10.33 10.29-5.696 0-10.29-4.596-10.29-10.29 0-5.673 4.594-10.29 10.29-10.29zm17.86 160.142H304.276v-123.99h173.235v123.99zm-47.37-160.12c5.716 0 10.31 4.595 10.31 10.268 0 5.673-4.594 10.268-10.31 10.268-5.652 0-10.268-4.595-10.268-10.268.022-5.673 4.638-10.268 10.268-10.268zM368.17 45.708c7.464 0 13.482 6.018 13.482 13.46s-6.018 13.46-13.482 13.46c-7.42 0-13.44-6.018-13.44-13.46.002-7.44 6.04-13.46 13.44-13.46zm-38.547.022c7.42 0 13.395 6.018 13.395 13.44s-5.975 13.438-13.395 13.438c-7.463 0-13.44-6.018-13.44-13.44s6.04-13.438 13.44-13.438zM168.015 236.998c0-5.673 4.595-10.268 10.268-10.268 5.673 0 10.29 4.595 10.29 10.268 0 5.673-4.617 10.29-10.29 10.29-5.674 0-10.268-4.617-10.268-10.29zm29.444 0c0-5.695 4.615-10.29 10.31-10.29s10.29 4.596 10.29 10.29c0 5.673-4.596 10.29-10.29 10.29-5.695 0-10.31-4.617-10.31-10.29zm22.454 210.962H117.28V266.378h102.655l-.02 181.582zm28.668-178.778v-24.57c0-20.793-17.062-37.856-37.878-37.856h-84.277c-20.816 0-37.878 17.062-37.878 37.857v24.57H34.88V95.362h354.775V202.01h-77.31c-18.357 0-33.327 14.95-33.327 33.262v33.91h-30.436z"/></svg>