<svg xmlns="http://www.w3.org/2000/svg" viewBox="0 0 217.794 217.794" fill="#FFF"><path d="M113.595 133.642l-5.932-13.17c5.655-4.15 10.512-9.314 14.307-15.208l13.507 5.118c2.583.98 5.47-.322 6.447-2.904l4.964-13.103c.47-1.24.428-2.616-.117-3.825-.544-1.21-1.546-2.152-2.787-2.622l-13.507-5.118c1.064-6.93.848-14.014-.637-20.87l13.168-5.933c1.21-.545 2.152-1.547 2.622-2.788.47-1.24.428-2.617-.117-3.826l-5.755-12.775c-1.134-2.52-4.096-3.64-6.612-2.506l-13.17 5.932c-4.15-5.655-9.314-10.512-15.208-14.307l5.118-13.508c.978-2.582-.322-5.47-2.904-6.447L93.88.82c-1.24-.47-2.615-.428-3.825.117s-2.152 1.547-2.622 2.788L82.316 17.23c-6.937-1.07-14.033-.848-20.872.637L55.514 4.7c-.546-1.21-1.548-2.153-2.79-2.623-1.238-.47-2.615-.428-3.824.117L36.124 7.95c-2.518 1.133-3.64 4.093-2.505 6.61l5.93 13.17c-5.654 4.15-10.51 9.315-14.306 15.21l-13.507-5.12c-1.24-.468-2.615-.426-3.825.118-1.21.545-2.152 1.547-2.622 2.788L.326 53.828c-.978 2.582.322 5.47 2.904 6.447l13.507 5.118c-1.064 6.93-.848 14.015.637 20.87l-13.17 5.933c-1.21.545-2.152 1.547-2.622 2.788-.47 1.24-.428 2.616.117 3.825l5.754 12.774c.544 1.21 1.547 2.152 2.787 2.622 1.242.47 2.617.43 3.826-.117l13.17-5.933c4.15 5.656 9.313 10.512 15.208 14.307l-5.118 13.507c-.978 2.583.322 5.47 2.904 6.448l13.103 4.964c.57.216 1.172.324 1.77.324.702 0 1.403-.147 2.055-.44 1.21-.546 2.152-1.548 2.622-2.79l5.117-13.505c6.937 1.07 14.034.85 20.872-.635l5.93 13.168c.545 1.21 1.547 2.152 2.788 2.622 1.24.47 2.617.43 3.825-.117l12.775-5.754c2.52-1.134 3.64-4.094 2.507-6.612zm-8.286-47.53c-4.964 13.1-17.707 21.902-31.71 21.902-4.096 0-8.135-.744-12.005-2.21-8.468-3.208-15.18-9.522-18.9-17.78-3.718-8.255-4-17.466-.79-25.934 4.962-13.1 17.705-21.9 31.708-21.9 4.096 0 8.135.743 12.005 2.21 8.468 3.207 15.18 9.52 18.9 17.777 3.72 8.257 4 17.468.79 25.936zm111.168 68.277c-.896-.978-2.145-1.56-3.47-1.616l-9.417-.404c-.866-4.445-2.432-8.736-4.632-12.697l6.945-6.374c2.035-1.868 2.17-5.03.303-7.065l-6.896-7.514c-.896-.976-2.145-1.557-3.47-1.614-1.322-.05-2.618.416-3.595 1.312l-6.944 6.374c-3.758-2.53-7.9-4.458-12.253-5.702l.404-9.418c.12-2.76-2.022-5.09-4.78-5.21l-10.19-.436c-2.745-.104-5.09 2.023-5.21 4.78l-.403 9.42c-4.444.866-8.735 2.432-12.697 4.63l-6.374-6.944c-.896-.977-2.145-1.558-3.47-1.615-1.323-.054-2.617.416-3.594 1.312l-7.514 6.895c-2.035 1.867-2.17 5.03-.303 7.064l6.374 6.944c-2.532 3.76-4.46 7.9-5.703 12.254l-9.417-.404c-2.747-.11-5.092 2.022-5.21 4.78l-.437 10.19c-.057 1.325.415 2.618 1.312 3.595.896.976 2.145 1.557 3.47 1.614l9.417.403c.867 4.445 2.433 8.736 4.632 12.698l-6.944 6.374c-.977.895-1.558 2.144-1.615 3.468-.057 1.325.415 2.618 1.312 3.595l6.896 7.514c.896.977 2.145 1.558 3.47 1.615 1.32.053 2.618-.416 3.595-1.312l6.944-6.374c3.76 2.53 7.9 4.458 12.254 5.702l-.404 9.418c-.118 2.76 2.022 5.09 4.78 5.21l10.19.436c.072.003.143.004.214.004 1.25 0 2.457-.468 3.38-1.316.978-.896 1.56-2.145 1.616-3.47l.404-9.417c4.444-.867 8.735-2.433 12.697-4.632l6.374 6.946c.896.977 2.145 1.558 3.47 1.615 1.33.06 2.618-.415 3.594-1.31l7.515-6.897c2.035-1.867 2.17-5.03.303-7.064l-6.374-6.946c2.53-3.76 4.458-7.9 5.702-12.254l9.417.404c2.756.106 5.09-2.022 5.21-4.78l.437-10.19c.057-1.325-.415-2.618-1.312-3.595zm-56.32 29.563c-12.845-.55-22.847-11.448-22.296-24.292.536-12.513 10.76-22.316 23.273-22.316.338 0 .678.007 1.02.022 12.843.55 22.845 11.448 22.294 24.292-.552 12.853-11.344 22.84-24.293 22.295z"/></svg>