<svg xmlns="http://www.w3.org/2000/svg" viewBox="0 0 491.608 491.608" fill="#FFF"><path d="M0 0v491.608h491.608V0H0zm458.834 458.834H357.536v-34.006h67.29V66.78h-99.81v32.774h67.037v131.983h-34.518V134.07H134.07v223.466h114.462v-32.774h-81.687V166.845h91.377v33.767h-57.61v90.384h90.384v-32.774h-57.61v-24.837h57.61v-66.54h33.767v157.917h-36.615v32.774h69.39V264.31h34.517v127.743h-292.5V334.57H66.78v90.257h257.982v34.006H32.774V157.075H66.78v141.978h32.773v-199.5h191.314V66.78H66.78v57.52H32.774V32.775h426.06v426.06z"/></svg>